<svg width="12" height="11" viewBox="0 0 12 11" fill="none" xmlns="http://www.w3.org/2000/svg">
<path d="M5.46642 9.83883L5.4657 9.83817C3.91064 8.42933 2.66051 7.29555 1.79313 6.23606C0.931485 5.18357 0.5 4.26558 0.5 3.297C0.5 1.72725 1.72771 0.5 3.3 0.5C4.19278 0.5 5.05732 0.917668 5.61947 1.5772L6 2.02366L6.38053 1.5772C6.94268 0.917668 7.80722 0.5 8.7 0.5C10.2723 0.5 11.5 1.72725 11.5 3.297C11.5 4.26559 11.0685 5.1836 10.2068 6.23694C9.33938 7.29715 8.08942 8.43225 6.53453 9.84396C6.53432 9.84415 6.53411 9.84434 6.5339 9.84453L6.00128 10.3253L5.46642 9.83883Z" stroke="#393A38"/>
</svg>
