<svg width="18" height="18" viewBox="0 0 18 18" fill="none" xmlns="http://www.w3.org/2000/svg">
<path fill-rule="evenodd" clip-rule="evenodd" d="M5.48232 0.518231C6.39255 0.476809 6.6834 0.466675 9.00093 0.466675H8.99827C11.3165 0.466675 11.6063 0.476809 12.5165 0.518231C13.425 0.559832 14.0454 0.703655 14.5894 0.914679C15.1512 1.13246 15.6259 1.42402 16.1006 1.89869C16.5752 2.37301 16.8668 2.8491 17.0855 3.41035C17.2952 3.95293 17.4392 4.57303 17.4819 5.48148C17.5228 6.39171 17.5335 6.68256 17.5335 9.0001C17.5335 11.3176 17.5228 11.6078 17.4819 12.518C17.4392 13.4261 17.2952 14.0464 17.0855 14.5891C16.8668 15.1502 16.5752 15.6263 16.1006 16.1006C15.6264 16.5753 15.151 16.8676 14.59 17.0855C14.047 17.2965 13.4262 17.4404 12.5178 17.482C11.6075 17.5234 11.3176 17.5335 8.99986 17.5335C6.68251 17.5335 6.39184 17.5234 5.48161 17.482C4.57333 17.4404 3.95306 17.2965 3.41012 17.0855C2.84922 16.8676 2.37313 16.5753 1.89899 16.1006C1.4245 15.6263 1.13294 15.1502 0.914801 14.589C0.703955 14.0464 0.560132 13.4263 0.518353 12.5178C0.477108 11.6076 0.466797 11.3176 0.466797 9.0001C0.466797 6.68256 0.477464 6.39154 0.518175 5.4813C0.559064 4.57321 0.703066 3.95293 0.914624 3.41017C1.13329 2.8491 1.42485 2.37301 1.89952 1.89869C2.37384 1.4242 2.84993 1.13264 3.41118 0.914679C3.95377 0.703655 4.57386 0.559832 5.48232 0.518231ZM8.23541 2.00447C8.38405 2.00424 8.54396 2.00431 8.71652 2.00439L9.00093 2.00447C11.2794 2.00447 11.5494 2.01265 12.4491 2.05354C13.2812 2.09158 13.7327 2.2306 14.0335 2.34741C14.4317 2.50207 14.7157 2.68696 15.0142 2.98563C15.3128 3.2843 15.4977 3.56875 15.6527 3.96698C15.7695 4.26743 15.9087 4.71899 15.9466 5.55099C15.9875 6.45056 15.9964 6.72079 15.9964 8.99814C15.9964 11.2755 15.9875 11.5457 15.9466 12.4453C15.9086 13.2773 15.7695 13.7289 15.6527 14.0293C15.4981 14.4275 15.3128 14.7111 15.0142 15.0096C14.7155 15.3083 14.4319 15.4931 14.0335 15.6478C13.7331 15.7651 13.2812 15.9038 12.4491 15.9419C11.5496 15.9827 11.2794 15.9916 9.00093 15.9916C6.72233 15.9916 6.45228 15.9827 5.55272 15.9419C4.72071 15.9035 4.26915 15.7644 3.96817 15.6476C3.56994 15.493 3.28549 15.3081 2.98682 15.0094C2.68815 14.7107 2.50326 14.427 2.34824 14.0286C2.23144 13.7281 2.09224 13.2766 2.05437 12.4446C2.01348 11.545 2.0053 11.2748 2.0053 8.99601C2.0053 6.71723 2.01348 6.44843 2.05437 5.54886C2.09241 4.71685 2.23144 4.26529 2.34824 3.96449C2.50291 3.56626 2.68815 3.28182 2.98682 2.98315C3.28549 2.68448 3.56994 2.49959 3.96817 2.34456C4.26897 2.22723 4.72071 2.08856 5.55272 2.05034C6.33993 2.01478 6.645 2.00411 8.23541 2.00234V2.00447ZM12.532 4.44503C12.532 3.87951 12.9907 3.42137 13.556 3.42137C14.1213 3.42137 14.58 3.87969 14.58 4.44503C14.58 5.01037 14.1213 5.46904 13.556 5.46904C12.9907 5.46904 12.532 5.01037 12.532 4.44503ZM4.61866 9.0001C4.61866 6.57998 6.58082 4.61783 9.00093 4.61783C11.421 4.61783 13.3825 6.57998 13.3825 9.0001C13.3825 11.4202 11.421 13.3815 9.00093 13.3815C6.58082 13.3815 4.61866 11.4202 4.61866 9.0001ZM11.8454 9.0001C11.8454 7.42906 10.5718 6.15562 9.00093 6.15562C7.42989 6.15562 6.15646 7.42906 6.15646 9.0001C6.15646 10.571 7.42989 11.8446 9.00093 11.8446C10.5718 11.8446 11.8454 10.571 11.8454 9.0001Z" fill="white"/>
</svg>
