<svg width="17" height="14" viewBox="0 0 17 14" fill="none" xmlns="http://www.w3.org/2000/svg">
<path d="M8.32769 4.32321L8.36126 4.87685L7.80168 4.80906C5.7648 4.54919 3.98532 3.66789 2.47444 2.18776L1.73579 1.45334L1.54554 1.99568C1.14264 3.20464 1.40004 4.4814 2.23942 5.3401C2.68709 5.81464 2.58636 5.88243 1.81414 5.59997C1.54554 5.50958 1.31051 5.44178 1.28813 5.47568C1.20979 5.55477 1.47839 6.58295 1.69103 6.98971C1.98201 7.55464 2.57517 8.10828 3.22429 8.43594L3.77268 8.69581L3.12356 8.70711C2.49683 8.70711 2.47444 8.71841 2.54159 8.95568C2.76543 9.69009 3.64957 10.4697 4.63444 10.8087L5.32832 11.0459L4.72397 11.4075C3.82864 11.9272 2.77662 12.221 1.7246 12.2436C1.22098 12.2549 0.806885 12.3001 0.806885 12.334C0.806885 12.447 2.17227 13.0797 2.96688 13.3283C5.3507 14.0627 8.1822 13.7463 10.3086 12.4922C11.8195 11.5996 13.3304 9.82568 14.0354 8.10828C14.416 7.19308 14.7965 5.52088 14.7965 4.71867C14.7965 4.19893 14.83 4.13114 15.4568 3.50971C15.8261 3.14815 16.173 2.7527 16.2402 2.63971C16.3521 2.42503 16.3409 2.42503 15.7702 2.61711C14.8189 2.95607 14.6846 2.91088 15.1546 2.40244C15.5015 2.04088 15.9156 1.38555 15.9156 1.19347C15.9156 1.15958 15.7478 1.21607 15.5575 1.31776C15.3561 1.43075 14.9084 1.60023 14.5726 1.70192L13.9683 1.89399L13.4199 1.52114C13.1177 1.31776 12.6924 1.09179 12.4686 1.02399C11.8978 0.865812 11.0249 0.88841 10.5101 1.06919C9.1111 1.57763 8.22696 2.88828 8.32769 4.32321Z" fill="white"/>
</svg>
