<svg width="20" height="20" viewBox="0 0 20 20" fill="none" xmlns="http://www.w3.org/2000/svg">
<path d="M14.582 11.9842C14.3338 11.8602 13.1099 11.2601 12.8818 11.178C12.6537 11.095 12.4879 11.054 12.3221 11.3021C12.1563 11.5491 11.6791 12.1082 11.5334 12.2733C11.3887 12.4383 11.243 12.4583 10.9948 12.3343C10.2613 12.0436 9.58432 11.628 8.99417 11.106C8.44988 10.6052 7.98325 10.0268 7.60952 9.38964C7.46483 9.14158 7.59445 9.00755 7.71905 8.88452C7.83058 8.7735 7.96824 8.59546 8.09184 8.45043C8.1942 8.32522 8.27811 8.18612 8.34103 8.03733C8.37414 7.96896 8.38956 7.89343 8.38587 7.81762C8.38219 7.7418 8.35952 7.66811 8.31993 7.60324C8.25763 7.47921 7.76025 6.25993 7.55325 5.76382C7.35128 5.28172 7.1463 5.34673 6.99256 5.33873C6.84787 5.33173 6.68207 5.32973 6.51628 5.32973C6.39016 5.33323 6.26613 5.36267 6.15199 5.4162C6.03786 5.46974 5.93609 5.54621 5.85309 5.6408C5.57177 5.90599 5.34901 6.22661 5.19902 6.58222C5.04903 6.93783 4.97509 7.32064 4.98191 7.70626C5.0626 8.6407 5.41567 9.53135 5.99779 10.2688C7.06483 11.8612 8.52957 13.15 10.2482 14.0087C10.7118 14.2069 11.1853 14.3812 11.667 14.5308C12.1748 14.6842 12.7116 14.7175 13.2345 14.6278C13.5809 14.558 13.9089 14.4174 14.1979 14.2149C14.4869 14.0124 14.7306 13.7525 14.9136 13.4515C15.0768 13.0814 15.1271 12.6717 15.0583 12.2733C14.997 12.1693 14.8312 12.1082 14.582 11.9842ZM17.086 2.90318C15.3778 1.20315 13.1071 0.178983 10.6967 0.0213433C8.28639 -0.136297 5.90062 0.583338 3.9836 2.04627C2.06658 3.5092 0.748953 5.61573 0.276019 7.97369C-0.196916 10.3316 0.207076 12.7803 1.41278 14.8639L0 20L5.27934 18.6227C6.7395 19.4141 8.37558 19.8288 10.0382 19.829H10.0422C12.0117 19.828 13.9368 19.2459 15.5742 18.1563C17.2115 17.0667 18.4877 15.5185 19.2415 13.7072C19.9953 11.8959 20.1928 9.90288 19.8092 7.9799C19.4255 6.05692 18.4779 4.29028 17.086 2.90317V2.90318ZM14.4403 16.8953C13.1221 17.7178 11.5979 18.1542 10.0422 18.1546H10.0382C8.55597 18.1545 7.10107 17.7575 5.82596 17.0053L5.52351 16.8273L2.39047 17.6455L3.22649 14.6048L3.03055 14.2927C2.16092 12.9123 1.72205 11.3061 1.76943 9.67735C1.81681 8.0486 2.34832 6.47042 3.29674 5.14236C4.24517 3.81429 5.56791 2.796 7.09771 2.21624C8.62752 1.63649 10.2957 1.5213 11.8912 1.88525C13.4868 2.2492 14.9381 3.07594 16.0617 4.26093C17.1852 5.44593 17.9305 6.93595 18.2034 8.54258C18.4762 10.1492 18.2643 11.8003 17.5945 13.2871C16.9247 14.7738 15.827 16.0295 14.4403 16.8953Z" fill="white"/>
</svg>
